<svg id="dino2" enable-background="new 0 0 300 300" height="512" viewBox="0 0 300 300" width="512" xmlns="http://www.w3.org/2000/svg"><circle cx="135.491" cy="124" fill="#edebdc" r="90"/><path d="m69.822 212.291 5.62 49.709h16.859l5.62-38.663z" fill="#9dc1e4"/><path d="m92.3 266h-16.858c-2.035 0-3.746-1.527-3.975-3.551l-5.621-49.709c-.158-1.395.426-2.77 1.539-3.623 1.117-.854 2.598-1.055 3.898-.549l28.1 11.047c1.729.68 2.764 2.459 2.496 4.299l-5.621 38.662c-.286 1.965-1.972 3.424-3.958 3.424zm-13.285-8h9.824l4.668-32.1-18.965-7.455z" fill="#4c241d"/><path d="m36.105 173.05c-11.663-64.145 18.299-98.132 38.819-113.375 9.35-6.946 21.971-7.501 31.959-1.508l4.784 2.871c4.942 2.965 5.348 9.967.822 13.535-13.847 10.918-25.808 2.944-25.808 2.944s-35.784 30.672-24.466 77.389c1.047 4.324 3.345 8.263 6.49 11.409 7.665 7.665 18.791 10.747 29.307 8.118l16.056-4.014c14.46-3.615 29.735-3.357 43.819 1.523 15.525 5.379 33.635 16.739 46.806 40.447 28.098 50.577 61.816 39.337 61.816 39.337s-44.957 16.859-89.914-16.859l-21.945 5.486c-18.813 4.703-38.628 3.588-56.719-3.399-24.836-9.592-55.373-28.411-61.826-63.904z" fill="#c1dbdc"/><path d="m238.317 260.027c-17.113 0-39.717-4.229-62.58-20.824l-20.115 5.029c-19.828 4.961-40.279 3.734-59.131-3.549-25.59-9.881-57.521-29.514-64.322-66.918-12.168-66.931 20.068-102.222 40.369-117.3 10.662-7.916 24.951-8.598 36.402-1.727l4.783 2.869c3.436 2.061 5.639 5.682 5.895 9.684.256 4.027-1.482 7.924-4.652 10.422-11.852 9.344-22.613 6.742-27.598 4.633-7.096 7-30.484 33.559-21.266 71.617.855 3.533 2.734 6.826 5.432 9.523 6.637 6.633 16.412 9.344 25.508 7.064l16.057-4.014c15.74-3.936 31.676-3.371 46.1 1.625 20.955 7.26 37.438 21.486 48.992 42.281 25.98 46.77 55.816 37.877 57.076 37.479 2.062-.656 4.297.443 5.01 2.496.711 2.051-.33 4.289-2.363 5.053-.948.354-12.544 4.557-29.597 4.557zm-61.722-29.162c.857 0 1.701.275 2.4.801 20.883 15.662 41.904 19.92 57.949 20.176-11.193-5.426-23.977-16.326-35.746-37.512-10.57-19.023-25.582-32.014-44.619-38.609-12.955-4.486-27.311-4.979-41.539-1.422l-16.057 4.014c-11.814 2.957-24.492-.561-33.105-9.17-3.738-3.738-6.35-8.336-7.549-13.297-11.762-48.541 24.211-80.049 25.748-81.367 1.363-1.166 3.334-1.281 4.822-.291.367.236 9.842 6.125 21.113-2.756 1.121-.885 1.713-2.209 1.621-3.631-.088-1.4-.826-2.615-2.025-3.334l-4.783-2.869c-8.664-5.197-19.461-4.695-27.518 1.289-18.809 13.973-48.662 46.77-37.268 109.449 6.137 33.754 35.654 51.74 59.334 60.887 17.301 6.684 36.082 7.805 54.307 3.248l21.943-5.486c.321-.081.648-.12.972-.12z" fill="#4c241d"/><path d="m142.878 206.768 11.239 55.232h16.859l5.619-38.663" fill="#c1dbdc"/><path d="m170.976 266h-16.859c-1.902 0-3.541-1.34-3.92-3.203l-11.238-55.232c-.439-2.164.957-4.275 3.123-4.717 2.158-.447 4.275.957 4.717 3.123l10.585 52.029h10.131l5.121-35.238c.316-2.186 2.348-3.703 4.535-3.383 2.186.318 3.699 2.348 3.383 4.535l-5.619 38.662c-.287 1.965-1.973 3.424-3.959 3.424z" fill="#4c241d"/><path d="m86.681 212.291 5.62 49.709h16.859l5.619-38.663" fill="#c1dbdc"/><g fill="#4c241d"><path d="m109.159 266h-16.859c-2.035 0-3.746-1.527-3.975-3.551l-5.619-49.709c-.248-2.195 1.33-4.176 3.525-4.424 2.182-.242 4.176 1.33 4.424 3.525l5.219 46.159h9.824l5.123-35.238c.318-2.188 2.359-3.691 4.535-3.383 2.186.318 3.699 2.348 3.383 4.535l-5.621 38.662c-.287 1.965-1.972 3.424-3.959 3.424z"/><circle cx="95.491" cy="64" r="2.855"/></g></svg>